<?xml version="1.0" encoding="UTF-8"?>
<svg id="Layer_2" data-name="Layer 2" xmlns="http://www.w3.org/2000/svg" viewBox="0 0 165.52 68.2">
  <defs>
    <style>
      .cls-1 {
        fill: #2a4dd0;
      }
    </style>
  </defs>
  <g id="Layer_1-2" data-name="Layer 1">
    <g>
      <g>
        <path d="M9.84,29.4c-2.16,0-3.97-.39-5.42-1.18-1.45-.79-2.55-1.99-3.3-3.62-.75-1.63-1.12-3.69-1.12-6.2s.37-4.61,1.12-6.22c.75-1.61,1.85-2.81,3.32-3.6,1.47-.79,3.29-1.18,5.48-1.18,2,0,3.67,.38,5.02,1.14,1.35,.76,2.37,1.91,3.06,3.46,.69,1.55,1.04,3.49,1.04,5.84v1.6H4.28c.05,1.49,.28,2.74,.68,3.74s1.01,1.73,1.82,2.2c.81,.47,1.85,.7,3.1,.7,.77,0,1.47-.1,2.08-.3,.61-.2,1.13-.49,1.56-.88,.43-.39,.76-.85,1-1.4,.24-.55,.36-1.17,.36-1.86h4.08c0,1.25-.21,2.36-.64,3.32-.43,.96-1.05,1.77-1.86,2.42-.81,.65-1.78,1.15-2.9,1.5s-2.36,.52-3.72,.52Zm-5.48-13H14.68c0-1.04-.11-1.91-.34-2.62-.23-.71-.55-1.29-.98-1.74-.43-.45-.93-.78-1.52-.98-.59-.2-1.25-.3-2-.3-1.12,0-2.07,.2-2.86,.6-.79,.4-1.39,1.02-1.82,1.86-.43,.84-.69,1.9-.8,3.18Z"/>
        <path d="M19.4,28.92l7.52-10.8-7.08-10.24h5.04l4.64,7.04h.24l4.68-7.04h4.76l-7.12,10.12,7.52,10.92h-5l-5.12-7.72h-.2l-5.12,7.72h-4.76Z"/>
        <path d="M41.24,35.84V7.88h3.4l.36,2.88h.28c.72-1.12,1.64-1.96,2.76-2.52,1.12-.56,2.37-.84,3.76-.84,1.73,0,3.22,.39,4.46,1.16,1.24,.77,2.19,1.97,2.86,3.6,.67,1.63,1,3.73,1,6.32s-.34,4.57-1.02,6.18-1.63,2.81-2.86,3.58c-1.23,.77-2.64,1.16-4.24,1.16-.93,0-1.8-.11-2.6-.32-.8-.21-1.51-.55-2.14-1-.63-.45-1.17-1.03-1.62-1.72h-.24v9.48h-4.16Zm9.32-10.04c1.25,0,2.27-.25,3.04-.74,.77-.49,1.34-1.26,1.7-2.3,.36-1.04,.54-2.36,.54-3.96v-.72c0-1.68-.19-3.04-.56-4.08-.37-1.04-.94-1.8-1.7-2.28-.76-.48-1.74-.72-2.94-.72s-2.23,.27-3,.82c-.77,.55-1.34,1.35-1.7,2.42-.36,1.07-.54,2.36-.54,3.88v.56c0,1.25,.12,2.33,.36,3.24,.24,.91,.59,1.65,1.04,2.22,.45,.57,1,.99,1.64,1.26,.64,.27,1.35,.4,2.12,.4Z"/>
        <path d="M68.2,29.4c-.67,0-1.39-.08-2.16-.24s-1.5-.45-2.18-.88c-.68-.43-1.23-1.02-1.66-1.78-.43-.76-.64-1.75-.64-2.98,0-1.44,.33-2.63,1-3.56s1.6-1.67,2.8-2.2c1.2-.53,2.63-.91,4.3-1.12,1.67-.21,3.49-.32,5.46-.32v-2.08c0-.69-.11-1.31-.34-1.84-.23-.53-.64-.95-1.24-1.24-.6-.29-1.46-.44-2.58-.44s-1.99,.14-2.62,.42c-.63,.28-1.07,.63-1.32,1.04-.25,.41-.38,.86-.38,1.34v.6h-4c-.03-.13-.04-.27-.04-.4v-.48c0-1.25,.35-2.31,1.06-3.18,.71-.87,1.7-1.53,2.98-1.98,1.28-.45,2.76-.68,4.44-.68,1.81,0,3.33,.26,4.54,.78,1.21,.52,2.13,1.26,2.74,2.22,.61,.96,.92,2.12,.92,3.48v10.68c0,.51,.13,.87,.38,1.08,.25,.21,.55,.32,.9,.32h1.44v2.8c-.32,.13-.72,.27-1.2,.4-.48,.13-1.04,.2-1.68,.2-.72,0-1.33-.13-1.82-.38-.49-.25-.89-.61-1.2-1.08-.31-.47-.51-.99-.62-1.58h-.24c-.48,.61-1.06,1.15-1.74,1.62-.68,.47-1.46,.83-2.34,1.08-.88,.25-1.87,.38-2.96,.38Zm1.16-3.44c.83,0,1.59-.13,2.3-.38,.71-.25,1.31-.61,1.82-1.08,.51-.47,.91-1.03,1.2-1.68,.29-.65,.44-1.37,.44-2.14v-1.4c-1.84,0-3.45,.11-4.84,.32-1.39,.21-2.47,.61-3.24,1.18s-1.16,1.37-1.16,2.38c0,.61,.13,1.13,.4,1.54,.27,.41,.67,.73,1.2,.94,.53,.21,1.16,.32,1.88,.32Z"/>
        <path d="M83.36,28.92V7.88h3.44l.36,3h.28c.51-.77,1.11-1.41,1.8-1.92,.69-.51,1.46-.89,2.3-1.16,.84-.27,1.77-.4,2.78-.4,1.33,0,2.51,.23,3.52,.7,1.01,.47,1.81,1.22,2.38,2.26,.57,1.04,.86,2.44,.86,4.2v14.36h-4.16V15.2c0-.8-.1-1.47-.3-2-.2-.53-.49-.96-.86-1.28-.37-.32-.81-.55-1.32-.68-.51-.13-1.07-.2-1.68-.2-.96,0-1.83,.23-2.62,.7-.79,.47-1.42,1.11-1.9,1.94-.48,.83-.72,1.8-.72,2.92v12.32h-4.16Z"/>
        <path d="M112,29.4c-1.71,0-3.19-.39-4.44-1.16-1.25-.77-2.22-1.97-2.9-3.6-.68-1.63-1.02-3.73-1.02-6.32s.35-4.6,1.04-6.2c.69-1.6,1.65-2.79,2.88-3.56,1.23-.77,2.64-1.16,4.24-1.16,.93,0,1.8,.11,2.6,.32,.8,.21,1.51,.55,2.14,1,.63,.45,1.15,1.03,1.58,1.72h.28V0h4.16V28.92h-3.4l-.4-2.88h-.28c-.69,1.12-1.61,1.96-2.74,2.52-1.13,.56-2.38,.84-3.74,.84Zm1.16-3.6c1.23,0,2.22-.27,2.98-.82,.76-.55,1.33-1.35,1.7-2.4s.56-2.34,.56-3.86v-.56c0-1.28-.12-2.37-.36-3.28-.24-.91-.59-1.65-1.04-2.22-.45-.57-1-.99-1.64-1.26-.64-.27-1.36-.4-2.16-.4-1.23,0-2.23,.25-3,.74-.77,.49-1.34,1.26-1.7,2.3s-.54,2.39-.54,4.04v.72c0,1.65,.19,2.99,.56,4.02,.37,1.03,.94,1.78,1.7,2.26,.76,.48,1.74,.72,2.94,.72Z"/>
        <path d="M1.12,60.92v-21.04h3.44l.36,3h.28c.48-.77,1.03-1.41,1.66-1.92,.63-.51,1.33-.89,2.12-1.16,.79-.27,1.63-.4,2.54-.4,1.31,0,2.45,.27,3.42,.8,.97,.53,1.71,1.43,2.22,2.68h.28c.48-.75,1.04-1.38,1.68-1.9,.64-.52,1.37-.91,2.18-1.18s1.69-.4,2.62-.4c1.25,0,2.36,.22,3.32,.66,.96,.44,1.72,1.17,2.28,2.2,.56,1.03,.84,2.39,.84,4.1v14.56h-4.16v-13.8c0-.8-.09-1.46-.28-1.98-.19-.52-.44-.93-.76-1.24-.32-.31-.71-.53-1.16-.66-.45-.13-.95-.2-1.48-.2-.88,0-1.67,.23-2.36,.7-.69,.47-1.25,1.11-1.68,1.94-.43,.83-.64,1.8-.64,2.92v12.32h-4.16v-13.8c0-.8-.09-1.46-.28-1.98-.19-.52-.44-.93-.76-1.24-.32-.31-.71-.53-1.16-.66-.45-.13-.93-.2-1.44-.2-.88,0-1.68,.23-2.4,.7-.72,.47-1.29,1.11-1.72,1.94-.43,.83-.64,1.8-.64,2.92v12.32H1.12Z"/>
        <path d="M39.32,61.4c-.67,0-1.39-.08-2.16-.24s-1.5-.45-2.18-.88c-.68-.43-1.23-1.02-1.66-1.78-.43-.76-.64-1.75-.64-2.98,0-1.44,.33-2.63,1-3.56s1.6-1.67,2.8-2.2c1.2-.53,2.63-.91,4.3-1.12,1.67-.21,3.49-.32,5.46-.32v-2.08c0-.69-.11-1.31-.34-1.84-.23-.53-.64-.95-1.24-1.24-.6-.29-1.46-.44-2.58-.44s-1.99,.14-2.62,.42c-.63,.28-1.07,.63-1.32,1.04-.25,.41-.38,.86-.38,1.34v.6h-4c-.03-.13-.04-.27-.04-.4v-.48c0-1.25,.35-2.31,1.06-3.18,.71-.87,1.7-1.53,2.98-1.98,1.28-.45,2.76-.68,4.44-.68,1.81,0,3.33,.26,4.54,.78,1.21,.52,2.13,1.26,2.74,2.22,.61,.96,.92,2.12,.92,3.48v10.68c0,.51,.13,.87,.38,1.08,.25,.21,.55,.32,.9,.32h1.44v2.8c-.32,.13-.72,.27-1.2,.4-.48,.13-1.04,.2-1.68,.2-.72,0-1.33-.13-1.82-.38-.49-.25-.89-.61-1.2-1.08-.31-.47-.51-.99-.62-1.58h-.24c-.48,.61-1.06,1.15-1.74,1.62-.68,.47-1.46,.83-2.34,1.08-.88,.25-1.87,.38-2.96,.38Zm1.16-3.44c.83,0,1.59-.13,2.3-.38,.71-.25,1.31-.61,1.82-1.08,.51-.47,.91-1.03,1.2-1.68,.29-.65,.44-1.37,.44-2.14v-1.4c-1.84,0-3.45,.11-4.84,.32-1.39,.21-2.47,.61-3.24,1.18s-1.16,1.37-1.16,2.38c0,.61,.13,1.13,.4,1.54,.27,.41,.67,.73,1.2,.94,.53,.21,1.16,.32,1.88,.32Z"/>
        <path d="M54.48,60.92v-21.04h3.44l.36,3.4h.24c.24-.67,.55-1.29,.94-1.88,.39-.59,.89-1.07,1.52-1.44,.63-.37,1.39-.56,2.3-.56,.43,0,.81,.04,1.14,.12,.33,.08,.59,.15,.78,.2v3.92h-1.4c-.85,0-1.61,.13-2.26,.4-.65,.27-1.2,.66-1.64,1.18-.44,.52-.76,1.15-.96,1.9-.2,.75-.3,1.59-.3,2.52v11.28h-4.16Z"/>
        <path d="M66.8,60.92v-28.92h4.16v17.48l8.28-9.6h4.92l-7.12,8.16,7.52,12.88h-4.8l-5.4-9.84-3.4,3.36v6.48h-4.16Z"/>
        <path d="M93.76,61.4c-2.16,0-3.97-.39-5.42-1.18-1.45-.79-2.55-1.99-3.3-3.62-.75-1.63-1.12-3.69-1.12-6.2s.37-4.61,1.12-6.22c.75-1.61,1.85-2.81,3.32-3.6,1.47-.79,3.29-1.18,5.48-1.18,2,0,3.67,.38,5.02,1.14,1.35,.76,2.37,1.91,3.06,3.46,.69,1.55,1.04,3.49,1.04,5.84v1.6h-14.76c.05,1.49,.28,2.74,.68,3.74s1.01,1.73,1.82,2.2c.81,.47,1.85,.7,3.1,.7,.77,0,1.47-.1,2.08-.3,.61-.2,1.13-.49,1.56-.88,.43-.39,.76-.85,1-1.4,.24-.55,.36-1.17,.36-1.86h4.08c0,1.25-.21,2.36-.64,3.32-.43,.96-1.05,1.77-1.86,2.42-.81,.65-1.78,1.15-2.9,1.5s-2.36,.52-3.72,.52Zm-5.48-13h10.32c0-1.04-.11-1.91-.34-2.62-.23-.71-.55-1.29-.98-1.74-.43-.45-.93-.78-1.52-.98-.59-.2-1.25-.3-2-.3-1.12,0-2.07,.2-2.86,.6-.79,.4-1.39,1.02-1.82,1.86-.43,.84-.69,1.9-.8,3.18Z"/>
        <path d="M110.92,61.4c-1.2,0-2.14-.23-2.82-.7-.68-.47-1.16-1.07-1.44-1.8-.28-.73-.42-1.51-.42-2.34v-13.24h-2.64v-3.44h2.72l.76-5.88h3.32v5.88h3.8v3.44h-3.8v12.76c0,.61,.13,1.08,.4,1.4,.27,.32,.71,.48,1.32,.48h2.08v2.8c-.27,.11-.59,.21-.98,.3-.39,.09-.78,.17-1.18,.24s-.77,.1-1.12,.1Z"/>
        <path d="M116.36,36.24v-4.24h4.16v4.24h-4.16Zm0,24.68v-21.04h4.16v21.04h-4.16Z"/>
        <path d="M124.36,60.92v-21.04h3.44l.36,3h.28c.51-.77,1.11-1.41,1.8-1.92,.69-.51,1.46-.89,2.3-1.16,.84-.27,1.77-.4,2.78-.4,1.33,0,2.51,.23,3.52,.7,1.01,.47,1.81,1.22,2.38,2.26,.57,1.04,.86,2.44,.86,4.2v14.36h-4.16v-13.72c0-.8-.1-1.47-.3-2-.2-.53-.49-.96-.86-1.28-.37-.32-.81-.55-1.32-.68-.51-.13-1.07-.2-1.68-.2-.96,0-1.83,.23-2.62,.7-.79,.47-1.42,1.11-1.9,1.94-.48,.83-.72,1.8-.72,2.92v12.32h-4.16Z"/>
        <path d="M149.28,68.2c-.96,0-1.86-.2-2.7-.6-.84-.4-1.51-.97-2.02-1.72-.51-.75-.76-1.65-.76-2.72,0-1.17,.33-2.13,.98-2.86,.65-.73,1.42-1.29,2.3-1.66-.64-.29-1.15-.72-1.54-1.28-.39-.56-.58-1.2-.58-1.92,0-.99,.36-1.79,1.08-2.4,.72-.61,1.56-1.01,2.52-1.2-.93-.61-1.66-1.39-2.18-2.32-.52-.93-.78-1.99-.78-3.16,0-1.41,.33-2.63,1-3.66,.67-1.03,1.66-1.83,2.98-2.42s2.93-.88,4.82-.88c.83,0,1.61,.06,2.34,.18,.73,.12,1.39,.29,1.98,.5,.93-.48,1.6-1.06,2-1.74s.64-1.31,.72-1.9h4.08c0,.88-.18,1.67-.54,2.38-.36,.71-.85,1.29-1.48,1.76-.63,.47-1.38,.79-2.26,.98,.67,.61,1.17,1.33,1.5,2.14,.33,.81,.5,1.7,.5,2.66,0,1.39-.32,2.6-.96,3.64-.64,1.04-1.61,1.85-2.9,2.44-1.29,.59-2.89,.88-4.78,.88h-3.28c-.64,0-1.15,.13-1.54,.4-.39,.27-.58,.67-.58,1.2,0,.45,.19,.83,.56,1.12,.37,.29,.87,.44,1.48,.44h8.88c1.55,0,2.83,.51,3.84,1.54,1.01,1.03,1.52,2.34,1.52,3.94,0,1.17-.3,2.23-.9,3.18s-1.44,1.69-2.52,2.24c-1.08,.55-2.33,.82-3.74,.82h-9.04Zm1.36-3.08h7.64c.56,0,1.07-.11,1.52-.32,.45-.21,.81-.51,1.08-.9,.27-.39,.4-.82,.4-1.3,0-.8-.25-1.43-.74-1.88-.49-.45-1.1-.68-1.82-.68h-8.08c-.75,0-1.37,.25-1.88,.74-.51,.49-.76,1.1-.76,1.82s.25,1.35,.74,1.82c.49,.47,1.13,.7,1.9,.7Zm3.8-14.8c1.57,0,2.75-.35,3.52-1.06,.77-.71,1.16-1.67,1.16-2.9s-.39-2.22-1.16-2.9-1.95-1.02-3.52-1.02-2.75,.34-3.52,1.02-1.16,1.65-1.16,2.9c0,.8,.17,1.5,.5,2.1,.33,.6,.85,1.06,1.56,1.38,.71,.32,1.58,.48,2.62,.48Z"/>
      </g>
      <polyline class="cls-1" points="159.76 .51 159.76 .51 159.76 34.22 126.05 .51 159.76 .51"/>
    </g>
  </g>
</svg>